<?xml version="1.0" encoding="UTF-8" standalone="no"?>
<!DOCTYPE svg PUBLIC "-//W3C//DTD SVG 1.1//EN"
 "http://www.w3.org/Graphics/SVG/1.1/DTD/svg11.dtd">
<!-- Generated by graphviz version 2.40.1 (20161225.0304)
 -->
<!-- Title: dependencies Pages: 1 -->
<svg width="544pt" height="211pt"
 viewBox="0.00 0.00 544.00 211.00" xmlns="http://www.w3.org/2000/svg" xmlns:xlink="http://www.w3.org/1999/xlink">
<g id="graph0" class="graph" transform="scale(1 1) rotate(0) translate(4 207)">
<title>dependencies</title>
<polygon fill="#ffffff" stroke="transparent" points="-4,4 -4,-207 540,-207 540,4 -4,4"/>
<text text-anchor="start" x="247.0091" y="-42.4" font-family="sans-serif" font-weight="bold" font-size="14.00" fill="#000000">Legend</text>
<polygon fill="#ffffb3" stroke="transparent" points="34,-10 34,-30 54,-30 54,-10 34,-10"/>
<text text-anchor="start" x="57.629" y="-15.4" font-family="sans-serif" font-size="14.00" fill="#000000"> &#160;Declarations</text>
<polygon fill="#8dd3c7" stroke="transparent" points="147,-10 147,-30 167,-30 167,-10 147,-10"/>
<text text-anchor="start" x="170.7251" y="-15.4" font-family="sans-serif" font-size="14.00" fill="#000000"> &#160;Module</text>
<polygon fill="#80b1d3" stroke="transparent" points="233,-10 233,-30 253,-30 253,-10 233,-10"/>
<text text-anchor="start" x="256.7812" y="-15.4" font-family="sans-serif" font-size="14.00" fill="#000000"> &#160;Bootstrap</text>
<polygon fill="#fdb462" stroke="transparent" points="330,-10 330,-30 350,-30 350,-10 330,-10"/>
<text text-anchor="start" x="353.6732" y="-15.4" font-family="sans-serif" font-size="14.00" fill="#000000"> &#160;Providers</text>
<polygon fill="#fb8072" stroke="transparent" points="426,-10 426,-30 446,-30 446,-10 426,-10"/>
<text text-anchor="start" x="449.7258" y="-15.4" font-family="sans-serif" font-size="14.00" fill="#000000"> &#160;Exports</text>
<g id="clust1" class="cluster">
<title>cluster_AppModule</title>
<polygon fill="none" stroke="#000000" stroke-dasharray="1,5" points="8,-70 8,-195 528,-195 528,-70 8,-70"/>
</g>
<g id="clust3" class="cluster">
<title>cluster_AppModule_imports</title>
<polygon fill="none" stroke="#000000" points="286,-78 286,-130 520,-130 520,-78 286,-78"/>
</g>
<g id="clust6" class="cluster">
<title>cluster_AppModule_providers</title>
<polygon fill="none" stroke="#000000" points="16,-78 16,-130 278,-130 278,-78 16,-78"/>
</g>
<!-- TarefaModule -->
<g id="node1" class="node">
<title>TarefaModule</title>
<polygon fill="#8dd3c7" stroke="#000000" points="512.0674,-122 509.0674,-126 488.0674,-126 485.0674,-122 415.9326,-122 415.9326,-86 512.0674,-86 512.0674,-122"/>
<text text-anchor="middle" x="464" y="-99.8" font-family="Times,serif" font-size="14.00" fill="#000000">TarefaModule</text>
</g>
<!-- AppModule -->
<g id="node3" class="node">
<title>AppModule</title>
<polygon fill="#8dd3c7" stroke="#000000" points="320.6571,-187 317.6571,-191 296.6571,-191 293.6571,-187 237.3429,-187 237.3429,-151 320.6571,-151 320.6571,-187"/>
<text text-anchor="middle" x="279" y="-164.8" font-family="Times,serif" font-size="14.00" fill="#000000">AppModule</text>
</g>
<!-- TarefaModule&#45;&gt;AppModule -->
<g id="edge1" class="edge">
<title>TarefaModule&#45;&gt;AppModule</title>
<path fill="none" stroke="#000000" d="M464,-122.1061C464,-141.3391 464,-169 464,-169 464,-169 330.9794,-169 330.9794,-169"/>
<polygon fill="#000000" stroke="#000000" points="330.9794,-165.5001 320.9794,-169 330.9793,-172.5001 330.9794,-165.5001"/>
</g>
<!-- UsuarioModule -->
<g id="node2" class="node">
<title>UsuarioModule</title>
<polygon fill="#8dd3c7" stroke="#000000" points="397.8669,-122 394.8669,-126 373.8669,-126 370.8669,-122 294.1331,-122 294.1331,-86 397.8669,-86 397.8669,-122"/>
<text text-anchor="middle" x="346" y="-99.8" font-family="Times,serif" font-size="14.00" fill="#000000">UsuarioModule</text>
</g>
<!-- UsuarioModule&#45;&gt;AppModule -->
<g id="edge2" class="edge">
<title>UsuarioModule&#45;&gt;AppModule</title>
<path fill="none" stroke="#000000" d="M307.4474,-122.1061C307.4474,-122.1061 307.4474,-140.991 307.4474,-140.991"/>
<polygon fill="#000000" stroke="#000000" points="303.9475,-140.9909 307.4474,-150.991 310.9475,-140.991 303.9475,-140.9909"/>
</g>
<!-- AppService -->
<g id="node4" class="node">
<title>AppService</title>
<ellipse fill="#fdb462" stroke="#000000" cx="213" cy="-104" rx="56.7406" ry="18"/>
<text text-anchor="middle" x="213" y="-99.8" font-family="Times,serif" font-size="14.00" fill="#000000">AppService</text>
</g>
<!-- AppService&#45;&gt;AppModule -->
<g id="edge3" class="edge">
<title>AppService&#45;&gt;AppModule</title>
<path fill="none" stroke="#000000" d="M253.396,-116.8419C253.396,-116.8419 253.396,-140.5231 253.396,-140.5231"/>
<polygon fill="#000000" stroke="#000000" points="249.8961,-140.523 253.396,-150.5231 256.8961,-140.5231 249.8961,-140.523"/>
</g>
<!-- CatsService -->
<g id="node5" class="node">
<title>CatsService</title>
<ellipse fill="#fdb462" stroke="#000000" cx="81" cy="-104" rx="57.3166" ry="18"/>
<text text-anchor="middle" x="81" y="-99.8" font-family="Times,serif" font-size="14.00" fill="#000000">CatsService</text>
</g>
<!-- CatsService&#45;&gt;AppModule -->
<g id="edge4" class="edge">
<title>CatsService&#45;&gt;AppModule</title>
<path fill="none" stroke="#000000" d="M81,-122.1061C81,-141.3391 81,-169 81,-169 81,-169 227.0093,-169 227.0093,-169"/>
<polygon fill="#000000" stroke="#000000" points="227.0093,-172.5001 237.0093,-169 227.0093,-165.5001 227.0093,-172.5001"/>
</g>
</g>
</svg>
