<?xml version="1.0" encoding="UTF-8" standalone="no"?>
<!DOCTYPE svg PUBLIC "-//W3C//DTD SVG 1.1//EN"
 "http://www.w3.org/Graphics/SVG/1.1/DTD/svg11.dtd">
<!-- Generated by graphviz version 2.40.1 (20161225.0304)
 -->
<!-- Title: dependencies Pages: 1 -->
<svg width="856pt" height="298pt"
 viewBox="0.00 0.00 856.00 298.00" xmlns="http://www.w3.org/2000/svg" xmlns:xlink="http://www.w3.org/1999/xlink">
<g id="graph0" class="graph" transform="scale(1 1) rotate(0) translate(4 294)">
<title>dependencies</title>
<polygon fill="#ffffff" stroke="transparent" points="-4,4 -4,-294 852,-294 852,4 -4,4"/>
<text text-anchor="start" x="403.0091" y="-42.4" font-family="sans-serif" font-weight="bold" font-size="14.00" fill="#000000">Legend</text>
<polygon fill="#ffffb3" stroke="transparent" points="190,-10 190,-30 210,-30 210,-10 190,-10"/>
<text text-anchor="start" x="213.629" y="-15.4" font-family="sans-serif" font-size="14.00" fill="#000000"> &#160;Declarations</text>
<polygon fill="#8dd3c7" stroke="transparent" points="303,-10 303,-30 323,-30 323,-10 303,-10"/>
<text text-anchor="start" x="326.7251" y="-15.4" font-family="sans-serif" font-size="14.00" fill="#000000"> &#160;Module</text>
<polygon fill="#80b1d3" stroke="transparent" points="389,-10 389,-30 409,-30 409,-10 389,-10"/>
<text text-anchor="start" x="412.7812" y="-15.4" font-family="sans-serif" font-size="14.00" fill="#000000"> &#160;Bootstrap</text>
<polygon fill="#fdb462" stroke="transparent" points="486,-10 486,-30 506,-30 506,-10 486,-10"/>
<text text-anchor="start" x="509.6732" y="-15.4" font-family="sans-serif" font-size="14.00" fill="#000000"> &#160;Providers</text>
<polygon fill="#fb8072" stroke="transparent" points="582,-10 582,-30 602,-30 602,-10 582,-10"/>
<text text-anchor="start" x="605.7258" y="-15.4" font-family="sans-serif" font-size="14.00" fill="#000000"> &#160;Exports</text>
<g id="clust1" class="cluster">
<title>cluster_AppModule</title>
<polygon fill="none" stroke="#000000" stroke-dasharray="1,5" points="8,-146 8,-274 528,-274 528,-146 8,-146"/>
</g>
<g id="clust3" class="cluster">
<title>cluster_AppModule_imports</title>
<polygon fill="none" stroke="#000000" points="286,-154 286,-206 520,-206 520,-154 286,-154"/>
</g>
<g id="clust6" class="cluster">
<title>cluster_AppModule_providers</title>
<polygon fill="none" stroke="#000000" points="16,-154 16,-206 278,-206 278,-154 16,-154"/>
</g>
<g id="clust7" class="cluster">
<title>cluster_TarefaModule</title>
<polygon fill="none" stroke="#000000" stroke-dasharray="1,5" points="261,-70 261,-138 423,-138 423,-70 261,-70"/>
</g>
<g id="clust12" class="cluster">
<title>cluster_TarefaModule_providers</title>
<polygon fill="none" stroke="#000000" points="269,-78 269,-130 415,-130 415,-78 269,-78"/>
</g>
<g id="clust13" class="cluster">
<title>cluster_UsuarioModule</title>
<polygon fill="none" stroke="#000000" stroke-dasharray="1,5" points="536,-214 536,-282 840,-282 840,-214 536,-214"/>
</g>
<g id="clust16" class="cluster">
<title>cluster_UsuarioModule_exports</title>
<polygon fill="none" stroke="#000000" points="710,-222 710,-274 832,-274 832,-222 710,-222"/>
</g>
<g id="clust18" class="cluster">
<title>cluster_UsuarioModule_providers</title>
<polygon fill="none" stroke="#000000" points="544,-222 544,-274 702,-274 702,-222 544,-222"/>
</g>
<!-- TarefaModule -->
<g id="node1" class="node">
<title>TarefaModule</title>
<polygon fill="#8dd3c7" stroke="#000000" points="390.0674,-198 387.0674,-202 366.0674,-202 363.0674,-198 293.9326,-198 293.9326,-162 390.0674,-162 390.0674,-198"/>
<text text-anchor="middle" x="342" y="-175.8" font-family="Times,serif" font-size="14.00" fill="#000000">TarefaModule</text>
</g>
<!-- AppModule -->
<g id="node3" class="node">
<title>AppModule</title>
<polygon fill="#8dd3c7" stroke="#000000" points="318.6571,-266 315.6571,-270 294.6571,-270 291.6571,-266 235.3429,-266 235.3429,-230 318.6571,-230 318.6571,-266"/>
<text text-anchor="middle" x="277" y="-243.8" font-family="Times,serif" font-size="14.00" fill="#000000">AppModule</text>
</g>
<!-- TarefaModule&#45;&gt;AppModule -->
<g id="edge1" class="edge">
<title>TarefaModule&#45;&gt;AppModule</title>
<path fill="none" stroke="#000000" d="M306.3973,-198.2228C306.3973,-198.2228 306.3973,-219.7269 306.3973,-219.7269"/>
<polygon fill="#000000" stroke="#000000" points="302.8973,-219.7269 306.3973,-229.7269 309.8973,-219.727 302.8973,-219.7269"/>
</g>
<!-- UsuarioModule -->
<g id="node2" class="node">
<title>UsuarioModule</title>
<polygon fill="#8dd3c7" stroke="#000000" points="511.8669,-198 508.8669,-202 487.8669,-202 484.8669,-198 408.1331,-198 408.1331,-162 511.8669,-162 511.8669,-198"/>
<text text-anchor="middle" x="460" y="-175.8" font-family="Times,serif" font-size="14.00" fill="#000000">UsuarioModule</text>
</g>
<!-- UsuarioModule&#45;&gt;AppModule -->
<g id="edge2" class="edge">
<title>UsuarioModule&#45;&gt;AppModule</title>
<path fill="none" stroke="#000000" d="M442.6889,-198.2667C442.6889,-216.5552 442.6889,-242 442.6889,-242 442.6889,-242 328.8103,-242 328.8103,-242"/>
<polygon fill="#000000" stroke="#000000" points="328.8103,-238.5001 318.8103,-242 328.8103,-245.5001 328.8103,-238.5001"/>
</g>
<!-- UsuarioService  -->
<g id="node7" class="node">
<title>UsuarioService </title>
<polygon fill="#fb8072" stroke="#000000" points="823.7948,-266 718.2052,-266 718.2052,-230 823.7948,-230 823.7948,-266"/>
<text text-anchor="middle" x="771" y="-243.8" font-family="Times,serif" font-size="14.00" fill="#000000">UsuarioService </text>
</g>
<!-- UsuarioModule&#45;&gt;UsuarioService  -->
<g id="edge6" class="edge">
<title>UsuarioModule&#45;&gt;UsuarioService </title>
<path fill="none" stroke="#000000" stroke-dasharray="5,2" d="M512.0544,-180C600.5885,-180 771,-180 771,-180 771,-180 771,-219.7772 771,-219.7772"/>
<polygon fill="#000000" stroke="#000000" points="767.5001,-219.7772 771,-229.7772 774.5001,-219.7773 767.5001,-219.7772"/>
</g>
<!-- AppService -->
<g id="node4" class="node">
<title>AppService</title>
<ellipse fill="#fdb462" stroke="#000000" cx="213" cy="-180" rx="56.7406" ry="18"/>
<text text-anchor="middle" x="213" y="-175.8" font-family="Times,serif" font-size="14.00" fill="#000000">AppService</text>
</g>
<!-- AppService&#45;&gt;AppModule -->
<g id="edge3" class="edge">
<title>AppService&#45;&gt;AppModule</title>
<path fill="none" stroke="#000000" d="M252.396,-193.1111C252.396,-193.1111 252.396,-219.7884 252.396,-219.7884"/>
<polygon fill="#000000" stroke="#000000" points="248.8961,-219.7884 252.396,-229.7884 255.8961,-219.7885 248.8961,-219.7884"/>
</g>
<!-- CatsService -->
<g id="node5" class="node">
<title>CatsService</title>
<ellipse fill="#fdb462" stroke="#000000" cx="81" cy="-180" rx="57.3166" ry="18"/>
<text text-anchor="middle" x="81" y="-175.8" font-family="Times,serif" font-size="14.00" fill="#000000">CatsService</text>
</g>
<!-- CatsService&#45;&gt;AppModule -->
<g id="edge4" class="edge">
<title>CatsService&#45;&gt;AppModule</title>
<path fill="none" stroke="#000000" d="M81,-198.2228C81,-218.3652 81,-248 81,-248 81,-248 224.9531,-248 224.9531,-248"/>
<polygon fill="#000000" stroke="#000000" points="224.9531,-251.5001 234.9531,-248 224.953,-244.5001 224.9531,-251.5001"/>
</g>
<!-- TarefaService -->
<g id="node6" class="node">
<title>TarefaService</title>
<ellipse fill="#fdb462" stroke="#000000" cx="342" cy="-104" rx="65.3626" ry="18"/>
<text text-anchor="middle" x="342" y="-99.8" font-family="Times,serif" font-size="14.00" fill="#000000">TarefaService</text>
</g>
<!-- TarefaService&#45;&gt;TarefaModule -->
<g id="edge5" class="edge">
<title>TarefaService&#45;&gt;TarefaModule</title>
<path fill="none" stroke="#000000" d="M342,-122.0109C342,-122.0109 342,-151.855 342,-151.855"/>
<polygon fill="#000000" stroke="#000000" points="338.5001,-151.8549 342,-161.855 345.5001,-151.855 338.5001,-151.8549"/>
</g>
<!-- UsuarioService -->
<g id="node8" class="node">
<title>UsuarioService</title>
<ellipse fill="#fdb462" stroke="#000000" cx="623" cy="-248" rx="70.622" ry="18"/>
<text text-anchor="middle" x="623" y="-243.8" font-family="Times,serif" font-size="14.00" fill="#000000">UsuarioService</text>
</g>
<!-- UsuarioService&#45;&gt;UsuarioModule -->
<g id="edge7" class="edge">
<title>UsuarioService&#45;&gt;UsuarioModule</title>
<path fill="none" stroke="#000000" d="M556.1251,-254C517.826,-254 477.3111,-254 477.3111,-254 477.3111,-254 477.3111,-208.2921 477.3111,-208.2921"/>
<polygon fill="#000000" stroke="#000000" points="480.8112,-208.2921 477.3111,-198.2921 473.8112,-208.2922 480.8112,-208.2921"/>
</g>
</g>
</svg>
